<svg 
          width="52.5" 
          height="37.734375" fill="none" 
          xmlns="http://www.w3.org/2000/svg">
          <path d="M 25.08843719959259 12.64593780040741 C 25.240837083547376 12.798723437008448 25.421881931251846 12.919942600128707 25.621201917529106 13.002651259303093 C 25.820521903806366 13.08535991847748 26.034201061120257 13.127932101488117 26.25 13.127932101488113 C 26.465798938879743 13.127932101488117 26.67947653157171 13.08535991847748 26.87879651784897 13.002651259303093 C 27.07811650412623 12.919942600128707 27.259162916452624 12.798723437008448 27.41156280040741 12.64593780040741 L 32.33343780040741 7.72406280040741 C 32.48597636120394 7.571524239610881 32.6069768317393 7.390434250119142 32.68953010439873 7.191133014857769 C 32.77208337705815 6.991831779596396 32.814571559429176 6.778222101274878 32.81457155942917 6.5625 C 32.814571559429176 6.346777898725122 32.77208337705815 6.133168220403604 32.68953010439873 5.933866985142231 C 32.6069768317393 5.734565749880858 32.48597636120394 5.553475760389119 32.33343780040741 5.40093719959259 C 32.18089923961088 5.248398638796061 31.999810032430105 5.12739895057166 31.80050879716873 5.044845677912235 C 31.60120756190736 4.962292405252811 31.387597101274878 4.919802658259867 31.171875 4.919802658259869 C 30.956152898725122 4.919802658259869 30.74254243809264 4.962292405252811 30.54324120283127 5.044845677912235 C 30.343939967569895 5.12739895057166 30.16285076038912 5.248398638796061 30.01031219959259 5.40093719959259 L 27.890625 7.523906193673611 L 27.890625 1.640625 C 27.890625 1.2055041803978384 27.7177751774434 0.7882047223392874 27.41009831428528 0.4805278591811657 C 27.102421451127157 0.172850996023044 26.68512081960216 1.0928757898653885e-15 26.25 0 C 25.81487918039784 1.0928757898653885e-15 25.39758011349477 0.172850996023044 25.089903250336647 0.4805278591811657 C 24.782226387178525 0.7882047223392874 24.609375 1.2055041803978384 24.609375 1.640625 L 24.609375 7.523906193673611 L 22.48968780040741 5.40093719959259 C 22.33714923961088 5.2483986265724525 22.156060032430105 5.127398956683464 21.95675879716873 5.044845677912235 C 21.75745756190736 4.962292399141006 21.543847101274878 4.919802661474379 21.328125 4.919802658259869 C 21.112402898725122 4.91980265504536 20.89879243809264 4.962292405252811 20.69949120283127 5.044845677912235 C 20.500189967569895 5.12739895057166 20.31910076038912 5.248398638796061 20.16656219959259 5.40093719959259 C 20.01402363879606 5.553475760389119 19.893023168260697 5.734565749880858 19.810469895601273 5.933866985142231 C 19.727916622941848 6.133168220403604 19.685426872734396 6.346777898725122 19.685426875948906 6.5625 C 19.685426879163415 6.778222101274878 19.727916616830043 6.991831779596396 19.810469895601273 7.191133014857769 C 19.8930231743725 7.390434250119142 20.014023626572452 7.571524239610881 20.16656219959259 7.72406280040741 L 25.08843719959259 12.64593780040741 L 25.08843719959259 12.64593780040741 Z M 7.687968537211418 10.972499549388885 C 7.995631147641689 10.664929838385433 8.412855870556086 10.492146536707878 8.847890831530094 10.492146536707878 C 9.282925792504102 10.492146536707878 9.700149733107537 10.664929838385433 10.007812343537807 10.972499549388885 L 14.647500738501549 15.608906149864197 C 14.946353818522766 15.918331575812772 15.111719519627513 16.332757752388716 15.107981488108635 16.76292434334755 C 15.104243456589757 17.193090934306383 14.931699447333813 17.60457906872034 14.627514258027077 17.908764258027077 C 14.32332906872034 18.212949447333813 13.911840934306383 18.385493456589757 13.48167434334755 18.389231488108635 C 13.051507752388716 18.392969519627513 12.637081575812772 18.227603818522766 12.327656149864197 17.92875073850155 L 7.687968537211418 13.28906312584877 C 7.380398826207966 12.9814005154185 7.207616306841373 12.56417501019314 7.207616306841373 12.129140049219131 C 7.207616306841373 11.694105088245124 7.380398826207966 11.276881147641689 7.687968537211418 10.969218537211418 L 7.687968537211418 10.972499549388885 Z M 44.81202989816666 10.972499549388885 C 45.11859749327414 11.280027577886358 45.29074475169182 11.696549614425749 45.29074475169182 12.130781337618828 C 45.29074475169182 12.565013060811907 45.11859749327414 12.981535097351298 44.81202989816666 13.28906312584877 L 40.1723438501358 17.92875073850155 C 40.02100138168316 18.085447159828618 39.83996567723807 18.210433034109883 39.63980287313461 18.29641655087471 C 39.43964006903116 18.382400067639537 39.22436008346267 18.427658815171526 39.00651901960373 18.429551795125008 C 38.78867795574479 18.43144477507849 38.57264021644369 18.389934516744688 38.37101340293884 18.30744244158268 C 38.169386589434 18.22495036642067 37.986206582863815 18.103128842194565 37.832163870334625 17.949086129665375 C 37.678121157805435 17.795043417136185 37.556301198201254 17.611863410566002 37.473809123039246 17.410236597061157 C 37.39131704787724 17.208609783556312 37.349806789543436 16.992573608877137 37.35169976949692 16.774732545018196 C 37.3535927494504 16.556891481159255 37.39884993236046 16.341608366346918 37.48483344912529 16.14144556224346 C 37.57081696589012 15.941282758140005 37.69580440479331 15.760248618316837 37.85250082612038 15.608906149864197 L 42.49218687415123 10.969218537211418 C 42.7998494845815 10.661648826207966 43.21707498980686 10.48886552453041 43.65210995078087 10.48886552453041 C 44.087144911754876 10.48886552453041 44.504367287736386 10.661648826207966 44.81202989816666 10.969218537211418 L 44.81202989816666 10.972499549388885 Z M 38.42015504837036 34.453125 C 39.22465811949223 32.460897183045745 39.527783839730546 30.30163111165166 39.30291786789894 28.164896965026855 C 39.078051896067336 26.028162818402052 38.332070549950004 23.979304684326053 37.13046848773956 22.198195606470108 C 35.92886642552912 20.417086528614163 34.30839003995061 18.958195787854493 32.41130277514458 17.949604019522667 C 30.514215510338545 16.94101225119084 28.39853374287486 16.413563042879105 26.25 16.413563042879105 C 24.10146625712514 16.413563042879105 21.985784489661455 16.94101225119084 20.088697224855423 17.949604019522667 C 18.19160996004939 18.958195787854493 16.571132009848952 20.417086528614163 15.369529947638512 22.198195606470108 C 14.167927885428071 23.979304684326053 13.421948103932664 26.028162818402052 13.197082132101059 28.164896965026855 C 12.972216160269454 30.30163111165166 13.275340315885842 32.460897183045745 14.079843387007713 34.453125 L 1.640625 34.453125 C 1.2055041803978384 34.453125 0.7882048201281577 34.6259748225566 0.48052795697003603 34.93365168571472 C 0.17285109381191432 35.24132854887284 4.4398078963281407e-16 35.65862918039784 0 36.09375 C 3.415236843329339e-16 36.52887081960216 0.17285109381191432 36.94617145112716 0.48052795697003603 37.25384831428528 C 0.7882048201281577 37.5615251774434 1.2055041803978384 37.734375 1.640625 37.734375 L 50.859375 37.734375 C 51.29449581960216 37.734375 51.71179645112716 37.5615251774434 52.01947331428528 37.25384831428528 C 52.3271501774434 36.94617145112716 52.5 36.52887081960216 52.5 36.09375 C 52.5 35.65862918039784 52.3271501774434 35.24132854887284 52.01947331428528 34.93365168571472 C 51.71179645112716 34.6259748225566 51.29449581960216 34.453125 50.859375 34.453125 L 38.423437625169754 34.453125 L 38.42015504837036 34.453125 Z M 3.187554387107383e-16 29.53125 C 3.984442983884229e-16 29.09612918039784 0.17285109381191432 28.678828548872843 0.48052795697003603 28.37115168571472 C 0.7882048201281577 28.0634748225566 1.2055041803978384 27.890625 1.640625 27.890625 L 8.203125 27.890625 C 8.638245819602162 27.890625 9.055544886505231 28.0634748225566 9.363221749663353 28.37115168571472 C 9.670898612821475 28.678828548872843 9.84375 29.09612918039784 9.84375 29.53125 C 9.84375 29.96637081960216 9.670898612821475 30.383671451127157 9.363221749663353 30.69134831428528 C 9.055544886505231 30.9990251774434 8.638245819602162 31.171875 8.203125 31.171875 L 1.640625 31.171875 C 1.2055041803978384 31.171875 0.7882048201281577 30.9990251774434 0.48052795697003603 30.69134831428528 C 0.17285109381191432 30.383671451127157 5.57822017743792e-16 29.96637081960216 3.187554387107383e-16 29.53125 Z M 42.65625 29.53125 C 42.65625 29.09612918039784 42.8290998225566 28.678828548872843 43.13677668571472 28.37115168571472 C 43.44445354887284 28.0634748225566 43.86175418039784 27.890625 44.296875 27.890625 L 50.859375 27.890625 C 51.29449581960216 27.890625 51.71179645112716 28.0634748225566 52.01947331428528 28.37115168571472 C 52.3271501774434 28.678828548872843 52.5 29.09612918039784 52.5 29.53125 C 52.5 29.96637081960216 52.3271501774434 30.383671451127157 52.01947331428528 30.69134831428528 C 51.71179645112716 30.9990251774434 51.29449581960216 31.171875 50.859375 31.171875 L 44.296875 31.171875 C 43.86175418039784 31.171875 43.44445354887284 30.9990251774434 43.13677668571472 30.69134831428528 C 42.8290998225566 30.383671451127157 42.65625 29.96637081960216 42.65625 29.53125 Z" fill="rgb(72.33854234218597,100.9375025331974,72.33854234218597)"/>
        </svg>