<svg 
          width="30" 
          height="30" fill="none" 
          xmlns="http://www.w3.org/2000/svg">
          <path d="M 0 28.125 C 0 29.16035156697035 0.6717187464237213 30 1.5 30 L 4.5 30 C 5.328281253576279 30 6 29.16035156697035 6 28.125 L 6 9.375 L 0 9.375 L 0 28.125 Z M 27.148123741149902 16.875 C 27.985311269760132 15.856054723262787 28.5 14.687109142541885 28.5 13.423241972923279 C 28.5 10.325976312160492 26.541094601154327 7.927734553813934 24.378750801086426 6.2220704555511475 C 22.412813365459442 4.671093933284283 20.599218517541885 2.837109435349703 19.130624771118164 0.5841797031462193 L 18.75 0 L 18.369375228881836 0.5841797031462193 C 16.900781482458115 2.837109435349703 15.087656915187836 4.671679884195328 13.121250629425049 6.2220704555511475 C 10.958906829357147 7.927734553813934 9 10.325976312160492 9 13.423241972923279 C 9 14.687109142541885 9.514687299728394 15.856054723262787 10.351874828338623 16.875 L 27.148123741149902 16.875 Z M 28.5 18.75 L 9 18.75 C 8.171718746423721 18.75 7.5 19.58964843302965 7.5 20.625 L 7.5 28.125 C 7.5 29.16035156697035 8.171718746423721 30 9 30 L 10.5 30 L 10.5 26.25 C 10.5 25.21464843302965 11.171718746423721 24.375 12 24.375 C 12.828281253576279 24.375 13.5 25.21464843302965 13.5 26.25 L 13.5 30 L 16.5 30 L 16.5 25.78125 C 16.5 22.96875 18.75 21.5625 18.75 21.5625 C 18.75 21.5625 21 22.96875 21 25.78125 L 21 30 L 24 30 L 24 26.25 C 24 25.21464843302965 24.67171874642372 24.375 25.5 24.375 C 26.32828125357628 24.375 27 25.21464843302965 27 26.25 L 27 30 L 28.5 30 C 29.32828125357628 30 30 29.16035156697035 30 28.125 L 30 20.625 C 30 19.58964843302965 29.32828125357628 18.75 28.5 18.75 Z M 3 0 C 3 0 0 1.875 0 5.625 L 0 7.5 L 6 7.5 L 6 5.625 C 6 1.875 3 0 3 0 Z" fill="rgb(72.33854234218597,100.9375025331974,72.33854234218597)"/>
        </svg>